<?xml version="1.0" encoding="utf-8"?>
<!-- Generator: Adobe Illustrator 21.1.0, SVG Export Plug-In . SVG Version: 6.00 Build 0)  -->
<svg version="1.1" id="Layer_1" xmlns="http://www.w3.org/2000/svg" xmlns:xlink="http://www.w3.org/1999/xlink" x="0px" y="0px"
	 viewBox="0 0 100 100" style="enable-background:new 0 0 100 100;" xml:space="preserve">
<style type="text/css">
	.st0{fill:#003087;}
</style>
<g>
	<path class="st0" d="M14.4,92.1c-0.3,0.9,0.2,1.8,1.1,2.1l0,0c0.9,0.3,1.8-0.2,2.1-1.1l8-23.9H22L14.4,92.1z"/>
	<path class="st0" d="M58.3,6.9C58,6,57.1,5.5,56.2,5.8l0,0c-0.9,0.3-1.4,1.2-1.1,2.1l2.1,6.3h3.6L58.3,6.9z"/>
	<path class="st0" d="M83.4,93.1c0.3,0.9,1.2,1.4,2.1,1.1l0,0c0.9-0.3,1.4-1.2,1.1-2.1L79,69.2h-3.6L83.4,93.1z"/>
	<path class="st0" d="M45.8,8.9c0.3-0.9-0.2-1.8-1.1-2.1l0,0c-0.9-0.3-1.8,0.2-2.1,1.1l-2.4,7.4h3.6L45.8,8.9z"/>
	<g>
		<circle class="st0" cx="37.2" cy="38.4" r="3"/>
		<circle class="st0" cx="22.9" cy="52" r="3"/>
		<circle class="st0" cx="54.5" cy="46.7" r="3"/>
		<path class="st0" d="M89.3,16.3H10.7c-1.6,0-2.9,1.3-2.9,2.9v46c0,1.6,1.3,2.9,2.9,2.9h78.5c1.6,0,2.9-1.3,2.9-2.9v-46
			C92.2,17.6,90.9,16.3,89.3,16.3z M73.4,43.7c-1.6,0-3.1-0.9-3.9-2.2l-10.5,5c0,0.1,0,0.1,0,0.2c0,2.5-2,4.5-4.5,4.5
			c-2.5,0-4.5-2-4.5-4.5c0-0.5,0.1-0.9,0.2-1.4l-8.9-5.1c-0.7,1.6-2.3,2.7-4.1,2.7c-1.3,0-2.5-0.6-3.4-1.5l-7.3,7.9
			c0.5,0.7,0.9,1.7,0.9,2.7c0,2.5-2,4.5-4.5,4.5s-4.5-2-4.5-4.5c0-2.5,2-4.5,4.5-4.5c1,0,1.8,0.3,2.6,0.8l7.5-8.2
			c-0.2-0.5-0.3-1.1-0.3-1.7c0-2.5,2-4.5,4.5-4.5c2.5,0,4.5,2,4.5,4.5c0,0.1,0,0.2,0,0.3l9.2,5.3c0.8-1.1,2.1-1.8,3.6-1.8
			c1.9,0,3.5,1.2,4.2,2.8l10.2-4.9c-0.1-0.3-0.1-0.6-0.1-0.9c0-2.5,2-4.5,4.5-4.5c2.5,0,4.5,2,4.5,4.5
			C77.9,41.7,75.9,43.7,73.4,43.7z"/>
		<circle class="st0" cx="73.4" cy="39.2" r="3"/>
	</g>
</g>
</svg>
