<?xml version="1.0" encoding="utf-8"?>
<!-- Generator: Adobe Illustrator 21.1.0, SVG Export Plug-In . SVG Version: 6.00 Build 0)  -->
<svg version="1.1" id="Layer_1" xmlns="http://www.w3.org/2000/svg" xmlns:xlink="http://www.w3.org/1999/xlink" x="0px" y="0px"
	 viewBox="0 0 100 100" style="enable-background:new 0 0 100 100;" xml:space="preserve">
<style type="text/css">
	.st0{fill:#003087;}
</style>
<g>
	<g>
		<path class="st0" d="M956,1882c-1.8,0-3.7-0.1-5.5-0.4c-1-0.2-1.7-1.1-1.7-2.1l0.4-7.4c-2.1-0.6-4.1-1.4-5.9-2.5l-4.8,5.5
			c-0.7,0.8-1.8,0.9-2.7,0.3c-3.2-2.3-5.1-4.1-7.2-7.2c-0.5-0.8-0.5-1.8,0.2-2.5l5.2-5.5c-0.9-1.7-1.7-3.5-2.2-5.4l-7.5-0.1
			c-1,0-1.8-0.7-1.9-1.6c-0.3-1.9-0.5-2.8-0.5-4.9c0-2,0.1-3.3,0.5-5.3c0.2-1,1-1.6,2-1.6c0,0,0,0,0,0l7.5,0.1
			c0.5-1.9,1.3-3.7,2.3-5.4l-5.3-5.2c-0.7-0.7-0.8-1.8-0.2-2.6c2.2-3.1,4.3-5.2,7.4-7.5c0.8-0.6,1.8-0.5,2.5,0.2l5.7,5.3
			c1.3-0.7,2.7-1.3,4.2-1.7l0.3-7.8c0-1,0.7-1.7,1.7-1.9c3.6-0.6,7.3-0.6,10.9,0c1,0.2,1.7,1.1,1.7,2.1l-0.4,7.4
			c1.7,0.5,3.3,1.1,4.9,2l5.7-5.3c0.7-0.6,1.8-0.7,2.5-0.2c3.1,2.2,5.8,4.9,8,8.1c0.6,0.9,0.4,2-0.4,2.7l-5.7,4.6
			c0.8,1.5,1.5,3,2,4.6l7.9,0.5c0.9,0.1,1.7,0.8,1.8,1.7c0.3,1.8,0.4,3.5,0.4,5.3c0,1.8-0.1,3.6-0.4,5.3c-0.2,1-1,1.7-2.1,1.7
			l-7.5-0.3c-0.5,1.7-1.1,3.4-2,5l5.1,5.9c0.6,0.7,0.6,1.7,0.1,2.5c-2.1,3.1-4.3,5.2-7.4,7.5c-0.9,0.6-2.1,0.5-2.7-0.4l-4.6-5.6
			c-1.8,1.1-3.8,1.9-5.8,2.5l0.3,7.5c0,1-0.7,1.9-1.7,2.1C959.7,1881.9,957.8,1882,956,1882z M953,1877.8c2,0.2,4.1,0.2,6.1,0
			l-0.3-7.3c0-1,0.6-1.8,1.6-2c2.7-0.6,5.3-1.7,7.6-3.3c0.9-0.6,2-0.4,2.7,0.4l4.5,5.5c1.6-1.3,2.9-2.6,4.1-4.2l-5-5.8
			c-0.6-0.7-0.6-1.6-0.2-2.3c1.3-2.1,2.1-4.3,2.6-6.6c0.2-1,1.1-1.7,2-1.6l7.3,0.3c0.1-1,0.1-2,0.1-2.9c0-1-0.1-2.1-0.2-3.1
			l-7.7-0.5c-0.9-0.1-1.6-0.7-1.8-1.5c-0.6-2.3-1.5-4.4-2.8-6.4c-0.6-0.9-0.4-2,0.4-2.6l5.5-4.5c-1.4-1.7-2.9-3.3-4.6-4.7l-5.6,5.2
			c-0.7,0.6-1.6,0.7-2.4,0.2c-2.1-1.3-4.3-2.1-6.6-2.6c-1-0.2-1.6-1.1-1.6-2.1l0.4-7.2c-2.1-0.2-4.2-0.2-6.2,0l-0.3,7.6
			c0,0.9-0.7,1.6-1.5,1.9c-2.1,0.5-4,1.3-5.9,2.4c-0.8,0.5-1.7,0.4-2.4-0.2l-5.6-5.2c-1.6,1.3-2.9,2.6-4.2,4.2l5.2,5.1
			c0.7,0.7,0.8,1.7,0.3,2.5c-1.4,2.2-2.4,4.5-3,7c-0.2,0.9-1,1.6-2,1.6c0,0,0,0,0,0l-7.4-0.1c-0.1,1-0.2,1.8-0.2,2.9
			c0,1.1,0,1.8,0.1,2.5l7.4,0.1c0.9,0,1.7,0.7,1.9,1.6c0.5,2.5,1.5,4.8,2.8,7c0.5,0.8,0.4,1.8-0.2,2.4l-5.1,5.4
			c1.2,1.5,2.3,2.7,3.9,3.9l4.7-5.4c0.7-0.8,1.8-0.9,2.6-0.3c2.3,1.6,4.9,2.7,7.7,3.3c1,0.2,1.7,1.1,1.6,2.1L953,1877.8z"/>
	</g>
</g>
<g>
	<path class="st0" d="M956,1861.3c-7.3,0-13.3-6-13.3-13.3s6-13.3,13.3-13.3c7.3,0,13.3,6,13.3,13.3S963.3,1861.3,956,1861.3z
		 M956,1838.7c-5.1,0-9.3,4.2-9.3,9.3s4.2,9.3,9.3,9.3s9.3-4.2,9.3-9.3S961.1,1838.7,956,1838.7z"/>
</g>
<g>
	<g>
		<g>
			<path class="st0" d="M1013.7,1851.1c-1.2,0.3-2.4,0.6-3.5,0.7c-0.7,0.1-1.3-0.4-1.4-1l-1.1-4.8c-1.4,0-2.9-0.2-4.2-0.5l-2,4.3
				c-0.3,0.6-1,0.9-1.6,0.7c-2.5-0.9-4-1.7-5.9-3.3c-0.5-0.4-0.6-1.1-0.3-1.6l2.3-4.5c-0.9-0.9-1.7-1.9-2.4-3l-4.8,1.3
				c-0.6,0.2-1.3-0.1-1.5-0.7c-0.6-1.2-0.8-1.7-1.2-3c-0.4-1.3-0.5-2.1-0.7-3.5c-0.1-0.6,0.3-1.2,1-1.4c0,0,0,0,0,0l4.8-1.3
				c0-1.3,0.1-2.6,0.5-3.8l-4.3-2.3c-0.6-0.3-0.8-1-0.6-1.6c0.8-2.3,1.8-4.1,3.4-6.1c0.4-0.5,1.1-0.6,1.6-0.4l4.6,2.3
				c0.7-0.7,1.5-1.3,2.3-1.9l-1.2-5c-0.2-0.6,0.2-1.2,0.7-1.5c2.2-1,4.5-1.7,6.9-2c0.7-0.1,1.3,0.4,1.4,1l1.1,4.8
				c1.2,0,2.3,0.1,3.5,0.3l2.7-4.4c0.3-0.5,1-0.8,1.6-0.6c2.4,0.9,4.6,2.1,6.5,3.7c0.5,0.4,0.7,1.2,0.3,1.8l-2.7,4
				c0.8,0.8,1.5,1.7,2.1,2.6l5.1-1.1c0.6-0.1,1.2,0.2,1.5,0.7c0.5,1.1,0.9,2.2,1.2,3.3c0.3,1.1,0.6,2.3,0.7,3.5
				c0.1,0.7-0.3,1.3-1,1.4l-4.8,1.2c0,1.2-0.1,2.4-0.3,3.5l4.3,2.8c0.5,0.3,0.7,1,0.5,1.5c-0.8,2.3-1.8,4.1-3.4,6.1
				c-0.4,0.6-1.2,0.7-1.8,0.3l-3.9-2.8c-1,1-2,1.9-3.2,2.6l1.6,4.7c0.2,0.6-0.1,1.3-0.7,1.6
				C1016,1850.4,1014.9,1850.8,1013.7,1851.1z M1011,1849c1.3-0.2,2.6-0.6,3.9-1.1l-1.5-4.6c-0.2-0.6,0.1-1.3,0.6-1.6
				c1.6-0.9,3-2,4.2-3.5c0.4-0.5,1.2-0.6,1.8-0.2l3.8,2.7c0.8-1.1,1.3-2.2,1.8-3.4l-4.2-2.8c-0.5-0.3-0.7-0.9-0.6-1.5
				c0.4-1.5,0.6-3.1,0.4-4.7c-0.1-0.6,0.4-1.2,1-1.4l4.7-1.1c-0.1-0.6-0.3-1.3-0.4-1.9c-0.2-0.7-0.4-1.3-0.7-2l-5,1.1
				c-0.6,0.1-1.1-0.1-1.4-0.6c-0.8-1.3-1.8-2.5-3-3.5c-0.5-0.4-0.6-1.2-0.2-1.8l2.7-3.9c-1.2-0.8-2.5-1.5-3.8-2.1l-2.6,4.3
				c-0.3,0.5-0.9,0.7-1.5,0.6c-1.5-0.4-3.1-0.6-4.7-0.4c-0.7,0.1-1.2-0.4-1.4-1l-1.1-4.7c-1.4,0.2-2.7,0.6-4,1.2l1.2,4.9
				c0.1,0.6-0.1,1.2-0.6,1.5c-1.2,0.7-2.3,1.6-3.3,2.6c-0.4,0.4-1,0.6-1.6,0.3l-4.5-2.3c-0.8,1.1-1.4,2.2-1.9,3.4l4.3,2.3
				c0.6,0.3,0.8,1,0.6,1.6c-0.5,1.6-0.7,3.3-0.6,5c0,0.6-0.4,1.2-1,1.4c0,0,0,0,0,0l-4.7,1.3c0.1,0.6,0.2,1.2,0.4,1.9
				c0.2,0.7,0.3,1.1,0.6,1.6l4.7-1.3c0.6-0.2,1.2,0.1,1.5,0.7c0.8,1.5,1.8,2.8,3.1,3.9c0.5,0.4,0.6,1.1,0.3,1.6l-2.3,4.4
				c1,0.8,2,1.3,3.2,1.8l2-4.3c0.3-0.6,1-0.9,1.6-0.7c1.8,0.6,3.6,0.8,5.5,0.7c0.7-0.1,1.2,0.4,1.4,1L1011,1849z"/>
		</g>
	</g>
	<g>
		<g>
			<path class="st0" d="M1009.9,1837.9c-4.7,1.3-9.5-1.4-10.9-6s1.4-9.5,6-10.9s9.5,1.4,10.9,6
				C1017.3,1831.7,1014.6,1836.6,1009.9,1837.9z M1005.8,1823.6c-3.2,0.9-5.1,4.3-4.2,7.6c0.9,3.2,4.3,5.1,7.6,4.2
				c3.2-0.9,5.1-4.3,4.2-7.6C1012.5,1824.6,1009.1,1822.7,1005.8,1823.6z"/>
		</g>
	</g>
</g>
<g>
	<g>
		<g>
			<path class="st0" d="M34.5,79.1c-1.4,0-2.8-0.1-4.2-0.3c-0.8-0.1-1.3-0.8-1.3-1.6l0.3-5.8c-1.6-0.5-3.2-1.1-4.6-2L21,73.6
				c-0.5,0.6-1.4,0.7-2.1,0.2c-2.5-1.8-3.9-3.2-5.6-5.6c-0.4-0.6-0.4-1.4,0.1-2l4.1-4.3c-0.7-1.3-1.3-2.7-1.7-4.2L10,57.7
				c-0.7,0-1.4-0.5-1.5-1.3c-0.3-1.5-0.4-2.2-0.4-3.8c0-1.5,0.1-2.5,0.4-4.1c0.1-0.7,0.8-1.3,1.5-1.3c0,0,0,0,0,0l5.8,0
				c0.4-1.5,1-2.9,1.8-4.2l-4.1-4c-0.5-0.5-0.6-1.4-0.2-2c1.7-2.4,3.3-4.1,5.8-5.8c0.6-0.4,1.4-0.4,2,0.1l4.4,4.1
				c1-0.6,2.1-1,3.3-1.4l0.2-6.1c0-0.7,0.6-1.4,1.3-1.5c2.8-0.4,5.7-0.4,8.5,0c0.8,0.1,1.3,0.8,1.3,1.6L39.7,34
				c1.3,0.4,2.6,0.9,3.8,1.5l4.4-4.1c0.5-0.5,1.4-0.6,2-0.1c2.4,1.7,4.5,3.8,6.2,6.3c0.5,0.7,0.3,1.6-0.3,2.1l-4.4,3.6
				c0.6,1.1,1.2,2.4,1.6,3.6l6.1,0.4c0.7,0,1.3,0.6,1.4,1.3c0.2,1.4,0.3,2.8,0.3,4.1c0,1.4-0.1,2.8-0.3,4.1
				c-0.1,0.8-0.8,1.3-1.6,1.3l-5.8-0.2c-0.4,1.3-0.9,2.6-1.5,3.9l4,4.6c0.5,0.5,0.5,1.3,0.1,1.9c-1.7,2.4-3.3,4.1-5.8,5.8
				c-0.7,0.5-1.6,0.4-2.1-0.3l-3.5-4.4c-1.4,0.8-2.9,1.5-4.5,1.9l0.2,5.8c0,0.8-0.5,1.5-1.3,1.6C37.4,79,35.9,79.1,34.5,79.1z
				 M32.2,75.9c1.6,0.2,3.2,0.2,4.7,0l-0.2-5.6c0-0.8,0.5-1.4,1.2-1.6c2.1-0.4,4.1-1.3,5.9-2.5c0.7-0.5,1.6-0.3,2.1,0.3l3.5,4.3
				c1.2-1,2.2-2,3.2-3.2l-3.9-4.5c-0.4-0.5-0.5-1.2-0.2-1.8c1-1.6,1.7-3.3,2-5.2c0.2-0.7,0.8-1.3,1.6-1.2l5.6,0.2
				c0.1-0.8,0.1-1.5,0.1-2.3c0-0.8,0-1.6-0.1-2.4l-6-0.4c-0.7,0-1.2-0.5-1.4-1.2c-0.4-1.8-1.2-3.4-2.2-5c-0.4-0.7-0.3-1.6,0.3-2.1
				l4.3-3.5c-1.1-1.3-2.3-2.5-3.6-3.6l-4.3,4c-0.5,0.5-1.3,0.6-1.9,0.2c-1.6-1-3.3-1.7-5.2-2c-0.8-0.2-1.3-0.8-1.2-1.6l0.3-5.6
				c-1.6-0.2-3.2-0.2-4.8,0l-0.2,5.9c0,0.7-0.5,1.3-1.2,1.4c-1.6,0.4-3.1,1-4.6,1.9c-0.6,0.4-1.4,0.3-1.9-0.2l-4.3-4
				c-1.3,1-2.3,2-3.3,3.3l4.1,4c0.5,0.5,0.6,1.3,0.2,2c-1.1,1.7-1.9,3.5-2.3,5.5c-0.2,0.7-0.8,1.2-1.5,1.2c0,0,0,0,0,0l-5.7,0
				c-0.1,0.7-0.1,1.4-0.1,2.3c0,0.9,0,1.4,0.1,2l5.7,0.1c0.7,0,1.4,0.5,1.5,1.2c0.4,1.9,1.1,3.8,2.2,5.4c0.4,0.6,0.3,1.4-0.2,1.9
				l-4,4.2c0.9,1.2,1.8,2.1,3,3l3.6-4.2c0.5-0.6,1.4-0.7,2.1-0.3c1.8,1.2,3.8,2.1,6,2.5c0.8,0.2,1.3,0.8,1.2,1.6L32.2,75.9z"/>
		</g>
	</g>
	<g>
		<path class="st0" d="M34.5,63c-5.7,0-10.3-4.6-10.3-10.3s4.6-10.3,10.3-10.3c5.7,0,10.3,4.6,10.3,10.3S40.2,63,34.5,63z
			 M34.5,45.5c-4,0-7.2,3.2-7.2,7.2s3.2,7.2,7.2,7.2s7.2-3.2,7.2-7.2S38.5,45.5,34.5,45.5z"/>
	</g>
	<g>
		<g>
			<g>
				<path class="st0" d="M79.4,55.1c-0.9,0.3-1.8,0.4-2.8,0.6c-0.5,0.1-1-0.3-1.1-0.8l-0.9-3.7c-1.1,0-2.2-0.1-3.3-0.4l-1.6,3.4
					c-0.2,0.5-0.8,0.7-1.3,0.5c-1.9-0.7-3.1-1.3-4.6-2.5c-0.4-0.3-0.5-0.8-0.3-1.3l1.8-3.5c-0.7-0.7-1.3-1.5-1.9-2.4l-3.7,1
					c-0.5,0.1-1-0.1-1.2-0.5c-0.4-0.9-0.6-1.3-0.9-2.3c-0.3-1-0.4-1.6-0.5-2.7c-0.1-0.5,0.3-1,0.7-1.1c0,0,0,0,0,0l3.7-1
					c0-1,0.1-2,0.4-3l-3.4-1.8c-0.4-0.2-0.7-0.8-0.5-1.2c0.6-1.8,1.4-3.2,2.6-4.8c0.3-0.4,0.8-0.5,1.3-0.3l3.6,1.8
					c0.6-0.5,1.2-1,1.8-1.5l-1-3.9c-0.1-0.5,0.1-1,0.6-1.2c1.7-0.8,3.5-1.3,5.4-1.5c0.5-0.1,1,0.3,1.1,0.8l0.9,3.7
					c0.9,0,1.8,0.1,2.7,0.3l2.1-3.4c0.3-0.4,0.8-0.6,1.2-0.4c1.8,0.7,3.6,1.6,5.1,2.9c0.4,0.3,0.5,0.9,0.2,1.4l-2.1,3.1
					c0.6,0.6,1.2,1.3,1.7,2l4-0.9c0.5-0.1,0.9,0.1,1.2,0.6c0.4,0.8,0.7,1.7,1,2.6c0.3,0.9,0.4,1.8,0.6,2.7c0.1,0.5-0.3,1-0.8,1.1
					l-3.7,0.9c0,0.9-0.1,1.8-0.3,2.7l3.4,2.2c0.4,0.3,0.6,0.8,0.4,1.2c-0.6,1.8-1.4,3.2-2.6,4.8c-0.3,0.4-1,0.5-1.4,0.2l-3.1-2.1
					c-0.7,0.8-1.6,1.5-2.5,2l1.2,3.6c0.2,0.5-0.1,1-0.5,1.3C81.2,54.5,80.3,54.8,79.4,55.1z M77.3,53.5c1-0.2,2-0.5,3-0.9l-1.2-3.5
					c-0.2-0.5,0-1,0.5-1.2c1.3-0.7,2.4-1.6,3.3-2.7c0.3-0.4,0.9-0.5,1.4-0.2l3,2.1c0.6-0.9,1-1.7,1.4-2.6l-3.3-2.2
					C85,42,84.8,41.5,85,41.1c0.3-1.2,0.4-2.4,0.3-3.7c0-0.5,0.3-1,0.8-1.1l3.6-0.9c-0.1-0.5-0.2-1-0.3-1.5c-0.1-0.5-0.3-1-0.5-1.5
					L85,33.3c-0.4,0.1-0.9-0.1-1.1-0.5c-0.6-1-1.4-2-2.3-2.8c-0.4-0.3-0.5-0.9-0.2-1.4l2.1-3c-0.9-0.7-1.9-1.2-2.9-1.6l-2,3.3
					c-0.2,0.4-0.7,0.6-1.2,0.5c-1.2-0.3-2.4-0.4-3.7-0.3c-0.5,0-1-0.3-1.1-0.8l-0.8-3.6c-1.1,0.2-2.1,0.5-3.1,0.9l0.9,3.8
					c0.1,0.4-0.1,0.9-0.5,1.1c-0.9,0.5-1.8,1.2-2.6,2c-0.3,0.3-0.8,0.4-1.2,0.2l-3.5-1.8c-0.6,0.9-1.1,1.7-1.5,2.7l3.3,1.8
					c0.4,0.2,0.6,0.7,0.5,1.2c-0.4,1.3-0.6,2.6-0.5,3.9c0,0.5-0.3,0.9-0.7,1.1c0,0,0,0,0,0l-3.6,1c0.1,0.5,0.2,0.9,0.3,1.5
					c0.2,0.5,0.3,0.9,0.4,1.2l3.7-1c0.5-0.1,1,0.1,1.2,0.5c0.6,1.2,1.4,2.2,2.4,3.1c0.4,0.3,0.4,0.8,0.2,1.2L65.8,51
					c0.8,0.6,1.5,1,2.5,1.4l1.5-3.3c0.2-0.5,0.8-0.7,1.3-0.5c1.4,0.5,2.8,0.6,4.3,0.5c0.5,0,1,0.3,1.1,0.8L77.3,53.5z"/>
			</g>
		</g>
		<g>
			<g>
				<path class="st0" d="M76.4,44.8c-3.6,1-7.4-1.1-8.4-4.7c-1-3.6,1.1-7.4,4.7-8.4s7.4,1.1,8.4,4.7S80,43.8,76.4,44.8z M73.2,33.7
					c-2.5,0.7-4,3.4-3.3,5.9c0.7,2.5,3.4,4,5.9,3.3c2.5-0.7,4-3.4,3.3-5.9C78.4,34.4,75.7,33,73.2,33.7z"/>
			</g>
		</g>
	</g>
</g>
</svg>
