<?xml version="1.0" encoding="utf-8"?>
<!-- Generator: Adobe Illustrator 21.1.0, SVG Export Plug-In . SVG Version: 6.00 Build 0)  -->
<svg version="1.1" id="Layer_1" xmlns="http://www.w3.org/2000/svg" xmlns:xlink="http://www.w3.org/1999/xlink" x="0px" y="0px"
	 viewBox="0 0 100 100" style="enable-background:new 0 0 100 100;" xml:space="preserve">
<style type="text/css">
	.st0{fill:#003087;}
</style>
<g>
	<polygon class="st0" points="64,55.5 64,69.2 71.7,75.4 74.6,71.8 68.5,67 68.5,55.5 	"/>
	<path class="st0" d="M72.4,46.4V24.1c0-2.8-2.3-5.1-5.1-5.1h-5.1v-5.1c0-1.7-1.6-3-3.4-2.4c-1.1,0.3-1.7,1.4-1.7,2.5v5H26.6v-5.1
		c0-1.7-1.6-3-3.4-2.4c-1.1,0.3-1.7,1.4-1.7,2.5v5h-5.1c-2.8,0-5.1,2.3-5.1,5.1v43.2c0,2.8,2.3,5.1,5.1,5.1h29.9
		c2.3,9.3,10.8,16.2,20.8,16.2c11.8,0,21.4-9.6,21.4-21.4C88.6,57.2,81.7,48.7,72.4,46.4z M16.5,24.1c0,0,50.8,0,50.8,0
		c0,0,0,3.1,0,7.6H16.5C16.5,27.2,16.5,24.1,16.5,24.1z M67.3,36.8c0,2.8,0,5.9,0,9c0,0-0.1,0-0.1,0c-4.5,0-8.6,1.4-12.1,3.7h-1.8
		V36.8H67.3z M30.4,67.3c-7.9,0-14,0-14,0c0,0,0-5.6,0-12.7h14V67.3z M30.4,49.5h-14c0-4.3,0-8.7,0-12.7h14V49.5z M48.2,57.2
		c-1.6,3-2.5,6.4-2.5,10c0,0,0,0.1,0,0.1c-3.4,0-6.9,0-10.3,0V54.6h12.7V57.2z M48.2,49.5H35.5V36.8h12.7V49.5z M67.2,84.7
		c-9.7,0-17.5-7.8-17.5-17.5s7.8-17.5,17.5-17.5s17.5,7.8,17.5,17.5S76.9,84.7,67.2,84.7z"/>
</g>
</svg>
