<?xml version="1.0" encoding="utf-8"?>
<!-- Generator: Adobe Illustrator 21.1.0, SVG Export Plug-In . SVG Version: 6.00 Build 0)  -->
<svg version="1.1" id="Layer_1" xmlns="http://www.w3.org/2000/svg" xmlns:xlink="http://www.w3.org/1999/xlink" x="0px" y="0px"
	 viewBox="0 0 100 100" style="enable-background:new 0 0 100 100;" xml:space="preserve">
<style type="text/css">
	.st0{fill:#003087;}
</style>
<path class="st0" d="M60,95 M28.9,87.7c0-7.4,5.1-13.5,12-15.1c-4.6-1.5-7.8-5.8-7.8-10.8c0-6.3,5.1-11.4,11.4-11.4
	c6.3,0,11.4,5.1,11.4,11.4c0,5.1-3.3,9.3-7.8,10.8c6.9,1.6,12,7.8,12,15.1v7.3l0,0.1h35V64c0-11.2-7.4-20.7-17.5-23.9
	c5.1-2.7,8.5-8,8.5-14.1c0-8.8-7.2-16-16-16s-16,7.2-16,16c0,6.1,3.4,11.4,8.5,14.1c-5.1,1.6-9.4,4.7-12.5,8.8
	c-3.5-4.6-8.5-8-14.4-9.3C43.8,38,50,30.7,50,22c0-9.9-8.1-18-18-18s-18,8.1-18,18c0,8.1,5.4,15,12.7,17.2
	C14.4,40.8,4.9,51.3,4.9,64v31h24L28.9,87.7z"/>
</svg>
