<?xml version="1.0" encoding="utf-8"?>
<!-- Generator: Adobe Illustrator 21.1.0, SVG Export Plug-In . SVG Version: 6.00 Build 0)  -->
<svg version="1.1" id="Layer_1" xmlns="http://www.w3.org/2000/svg" xmlns:xlink="http://www.w3.org/1999/xlink" x="0px" y="0px"
	 viewBox="0 0 100 100" style="enable-background:new 0 0 100 100;" xml:space="preserve">
<style type="text/css">
	.st0{fill:#003087;}
</style>
<path class="st0" d="M94.3,54.8L76,10.7c-0.3-0.6-0.9-1-1.6-1L26.6,9.5l-21,44.7l8.2,7.4l-1.3,1.1c-1.8,1.5-2.1,4.2-0.6,6l4.8,5.3
	c0.9,1.1,2.5,1.3,3.6,0.4v0c0.4-0.3,23.6-19.2,24-19.2c0.3,0-12.8,14-18.2,20c-1.3,1.5-1.3,3.7-0.1,5.2c0,0,3.9,5.8,6.9,2.7
	c0,0,19.8-18,20.4-17.3L39.8,82c-0.9,1.1-0.8,2.6,0.1,3.6l3.6,4.2c0.6,0.7,3.8,0.8,5.3,0l4.8-3.5l0.8,0.7c1,1.1,2.4,1.6,3.7,1.6
	c1.2,0,2.4-0.4,3.4-1.3l0.8-0.8c1-0.9,1.6-2.1,1.6-3.5c0.1-1.3-0.4-2.5-1.3-3.6l1-0.8l1.6,1.8c1.1,1.2,2.6,1.8,4.1,1.8
	c1.3,0,2.7-0.5,3.7-1.4c2.3-2.1,2.4-5.6,0.4-7.9l-0.8-0.9l0.6-0.5l3.3,3.6c1,1.1,2.4,1.7,3.9,1.8c0.1,0,0.2,0,0.3,0
	c1.4,0,2.7-0.5,3.7-1.4c1.1-1,1.7-2.4,1.8-3.9c0.1-1.5-0.4-2.9-1.4-4l-2.5-2.7l1.2-0.9l0.2,0.2c0.9,1,2.1,1.6,3.5,1.6
	c0.1,0,0.2,0,0.2,0c1.3,0,2.4-0.5,3.4-1.3l0.8-0.8c0.1-0.1,0.2-0.2,0.3-0.3c0.8-0.9,1.3-2,1.4-3.2c0.1-1.1-0.2-2.1-0.8-3l1.2-0.9
	C94.3,56.3,94.6,55.5,94.3,54.8z M91,63.4l-0.8,0.8c-0.8,0.7-1.8,1.1-2.9,1c-1.1-0.1-2.1-0.5-2.8-1.3l-0.1-0.1l-2.1-1.9
	c-0.7-0.8-1.1-1.8-1-2.9c0.1-1.1,0.5-2.1,1.3-2.8l0.8-0.8c0.8-0.7,1.7-1,2.7-1c1.1,0,2.2,0.5,3,1.3l2.3,2c0.2,0.2,0.3,0.4,0.4,0.6
	c0.4,0.7,0.6,1.5,0.6,2.3C92.3,61.6,91.8,62.6,91,63.4C91.1,63.3,91.1,63.3,91,63.4z M80.5,76.2c-1.2-0.1-2.4-0.6-3.2-1.5l-3.2-3.5
	l-1.4-1.5c-1.7-1.9-1.6-4.8,0.3-6.5c0.9-0.8,2-1.2,3.1-1.2c1.2,0,2.5,0.5,3.4,1.5l2,2.2l2.6,2.8c0.8,0.9,1.2,2.1,1.2,3.3
	c-0.1,1.2-0.6,2.4-1.5,3.2C82.9,75.9,81.8,76.3,80.5,76.2z M66.1,80l-1.5-1.7l-3-3.3c-0.8-0.9-1.2-2.1-1.2-3.3s0.6-2.4,1.5-3.2
	c0.8-0.8,1.9-1.2,3.1-1.2c0.1,0,0.2,0,0.2,0c1.2,0.1,2.4,0.6,3.2,1.5l3.7,4l0.9,1c1.7,1.9,1.6,4.8-0.3,6.5
	C70.7,82,67.8,81.9,66.1,80z M61.9,80.3c0.7,0.8,1.1,1.8,1,2.9c-0.1,1.1-0.5,2.1-1.3,2.8l-0.8,0.8c-1.6,1.5-4.2,1.4-5.7-0.3
	l-0.7-0.6l-1.6-1.4c-1.5-1.6-1.4-4.2,0.3-5.7l0.8-0.8c0.8-0.7,1.7-1,2.7-1c1.1,0,2.2,0.5,3,1.3L61.9,80.3L61.9,80.3z M6.8,54
	l20.4-43.5h17.9h1.3l15.2,10.8L71,42.1c0.5,1.2,0.1,2.5-1,3.2l-3.3,2.1c-0.6,0.4-1.3,0.5-2,0.3c-0.7-0.2-1.3-0.6-1.6-1.3L56,33.1
	c0-0.1-0.9-1.4-2.7-1.8c-1.3-0.3-2.8,0-4.3,0.9c-0.4,0.2-0.8,0.5-1.2,0.8c-3.5,2.8-30.3,24.9-33.6,27.6L6.8,54z"/>
</svg>
