<?xml version="1.0" encoding="utf-8"?>
<!-- Generator: Adobe Illustrator 21.1.0, SVG Export Plug-In . SVG Version: 6.00 Build 0)  -->
<svg version="1.1" id="Layer_1" xmlns="http://www.w3.org/2000/svg" xmlns:xlink="http://www.w3.org/1999/xlink" x="0px" y="0px"
	 viewBox="0 0 100 100" style="enable-background:new 0 0 100 100;" xml:space="preserve">
<style type="text/css">
	.st0{fill:#003087;}
</style>
<path class="st0" d="M11.5,12.5v75h77.1v-75H11.5z M65,74.6H35.5v-3.5c4.8-2.4,8.1-7.1,8.1-12.4c0-1.7-0.1-3.1-0.4-5H36v-4.5h6.6
	c-0.4-2.1-0.8-4.9-0.8-7.7c0-8.4,5.8-13.8,13.6-13.8c3.7,0,6.2,0.9,7.7,1.8l-1.4,4.7c-1.3-0.7-3.3-1.4-6.3-1.4
	c-5.5,0-7.8,3.8-7.8,8.9c0,3.1,0.4,5.3,0.9,7.6h10.2v4.5H49c0.2,2.7,0.4,5.4-0.3,8c-0.8,3.1-2.5,5.6-4.9,7.7v0.1H65V74.6z"/>
</svg>
