<?xml version="1.0" encoding="utf-8"?>
<!-- Generator: Adobe Illustrator 21.1.0, SVG Export Plug-In . SVG Version: 6.00 Build 0)  -->
<svg version="1.1" id="Layer_1" xmlns="http://www.w3.org/2000/svg" xmlns:xlink="http://www.w3.org/1999/xlink" x="0px" y="0px"
	 viewBox="0 0 100 100" style="enable-background:new 0 0 100 100;" xml:space="preserve">
<style type="text/css">
	.st0{fill:#003087;}
</style>
<path class="st0" d="M11.3,61.4c1.4,0,2.8-0.5,3.9-1.3v15.5h17.1v-3.3L32,71.9c-0.8-0.8-1.2-1.8-1.3-2.9c0-1.2,0.4-2.4,1.2-3.2
	c0.8-0.8,1.8-1.2,2.8-1.2c0,0,0,0,0,0c2.2,0,4.1,1.9,4.1,4.3c0,1.2-0.5,2.3-1.3,3.1l-0.4,0.4v3.3H70v-3.2l-0.3-0.3
	c-0.8-0.8-1.3-1.9-1.4-3.1c0-1.3,0.4-2.5,1.3-3.4c0.8-0.9,1.9-1.3,3.1-1.3c2.4,0,4.4,2.1,4.4,4.6c0,1.3-0.5,2.4-1.4,3.3l-0.3,0.3
	v3.2h17.7V58.8h-3.1l-0.3,0.3c-0.8,0.9-2,1.4-3.2,1.4c-2.4,0-4.4-2-4.4-4.4c0-2.4,2-4.4,4.4-4.4c1.2,0,2.3,0.5,3.2,1.4l0.3,0.3h3.1
	V35.6H77.3v-0.1c1-1.1,1.6-2.5,1.6-4.1c0.1-1.8-0.6-3.5-1.8-4.8c-1.2-1.2-2.7-1.9-4.4-1.9c0,0,0,0,0,0c-3.4,0-6.2,2.9-6.2,6.4
	c0,1.6,0.6,3.2,1.7,4.3v0.1H55.6v-0.3H39.9c0.9-1.1,1.3-2.5,1.4-3.9c0.1-1.8-0.6-3.7-1.9-5c-1.2-1.3-2.9-2-4.6-2c0,0,0,0,0,0
	c-3.6,0-6.5,3-6.5,6.7c0,1.5,0.5,3,1.4,4.2H15.2v14.3c-1.6-1.2-3.6-1.6-5.6-1.1C7.3,49.2,5.5,51,5,53.4c-0.4,2,0,4,1.3,5.6
	C7.5,60.5,9.3,61.4,11.3,61.4z M7.4,53.9c0.3-1.4,1.5-2.6,2.9-3c1.5-0.4,3,0,4.1,1.1l0.4,0.4h3V37.7h14.7v-3.1L32,34.2
	c-0.8-0.8-1.3-1.9-1.3-3.1c0-2.4,1.8-4.3,4.1-4.3c0,0,0,0,0,0c1.1,0,2.1,0.4,2.9,1.3c0.8,0.9,1.3,2,1.2,3.2c0,1.1-0.5,2.1-1.3,2.9
	l-0.4,0.4v3.1h15.9V50c-1.5-1.2-3.6-1.7-5.5-1.2c-2.2,0.6-3.9,2.4-4.4,4.6c-0.4,1.9,0,3.8,1.2,5.3c1.2,1.5,3,2.3,4.9,2.3
	c1.4,0,2.8-0.5,3.9-1.4v13.5H39.7c1-1.2,1.6-2.8,1.6-4.4c0-3.7-2.9-6.7-6.5-6.7c-1.8,0-3.4,0.7-4.7,2c-1.3,1.3-2,3.2-1.9,5
	c0.1,1.5,0.6,3,1.6,4.1H17.7V57.3h-3l-0.4,0.4c-0.8,0.8-1.8,1.3-3,1.3c-1.3,0-2.4-0.6-3.2-1.5C7.3,56.4,7.1,55.2,7.4,53.9z"/>
</svg>
