<?xml version="1.0" encoding="utf-8"?>
<!-- Generator: Adobe Illustrator 21.1.0, SVG Export Plug-In . SVG Version: 6.00 Build 0)  -->
<svg version="1.1" id="Layer_1" xmlns="http://www.w3.org/2000/svg" xmlns:xlink="http://www.w3.org/1999/xlink" x="0px" y="0px"
	 viewBox="0 0 100 100" style="enable-background:new 0 0 100 100;" xml:space="preserve">
<style type="text/css">
	.st0{fill:#003087;}
</style>
<g>
	<g>
		<path class="st0" d="M57.2,60.9c3-2.2,5-5.8,5-9.9c0-6.8-5.5-12.3-12.3-12.3s-12.3,5.5-12.3,12.3c0,4,2,7.6,5,9.9
			c-4.7,2.5-7.9,7.2-7.9,11.9v16.7H65V72.8C65,68.2,61.8,63.5,57.2,60.9z"/>
	</g>
	<g>
		<path class="st0" d="M29.6,64.7c-2.7-4.1-4.2-8.8-4.2-13.7c0-13.6,11-24.6,24.6-24.6s24.6,11,24.6,24.6c0,4.5-1.2,8.9-3.5,12.7
			l-2.6-1.5c2-3.3,3.1-7.2,3.1-11.1c0-11.9-9.7-21.6-21.6-21.6S28.4,39.1,28.4,51c0,4.3,1.3,8.5,3.7,12.1L29.6,64.7z"/>
	</g>
	<g>
		<g>
			<path class="st0" d="M29.3,82.8c-11.5-7.2-18.4-19.6-18.4-33.2c0-21.6,17.6-39.1,39.1-39.1s39.1,17.6,39.1,39.1
				c0,13-6.5,25.2-17.3,32.5l-2-3c9.8-6.6,15.7-17.6,15.7-29.5c0-19.6-15.9-35.5-35.5-35.5S14.5,30.1,14.5,49.6
				c0,12.3,6.2,23.6,16.7,30.1L29.3,82.8z"/>
		</g>
	</g>
</g>
</svg>
