<?xml version="1.0" encoding="utf-8"?>
<!-- Generator: Adobe Illustrator 21.1.0, SVG Export Plug-In . SVG Version: 6.00 Build 0)  -->
<svg version="1.1" id="Layer_1" xmlns="http://www.w3.org/2000/svg" xmlns:xlink="http://www.w3.org/1999/xlink" x="0px" y="0px"
	 viewBox="0 0 100 100" style="enable-background:new 0 0 100 100;" xml:space="preserve">
<style type="text/css">
	.st0{fill:#003087;}
</style>
<path class="st0" d="M81.6,67.1c4.2-2,7.2-6.4,7.2-11.4c0-7-5.7-12.7-12.7-12.7s-12.7,5.7-12.7,12.7c0,5,2.9,9.3,7.2,11.4
	c-4.7,2.1-8,6.8-8,12.3V89h26.9v-9.6C89.6,73.9,86.3,69.2,81.6,67.1z"/>
<path class="st0" d="M29.4,67.1c4.2-2,7.2-6.4,7.2-11.4c0-7-5.7-12.7-12.7-12.7s-12.7,5.7-12.7,12.7c0,5,2.9,9.3,7.2,11.4
	c-4.7,2.1-8,6.8-8,12.3V89h26.9v-9.6C37.3,73.9,34.1,69.2,29.4,67.1z"/>
<path class="st0" d="M55.5,67.1c4.2-2,7.2-6.4,7.2-11.4c0-7-5.7-12.7-12.7-12.7s-12.7,5.7-12.7,12.7c0,5,2.9,9.3,7.2,11.4
	c-4.7,2.1-8,6.8-8,12.3V89h26.9v-9.6C63.5,73.9,60.2,69.2,55.5,67.1z"/>
<path class="st0" d="M76.4,9.5H63.8c-0.7,0-1.3,0.6-1.3,1.3v1.3c0,0.7,0.6,1.3,1.3,1.3h7.3L45.3,30l-4.9-7.4L21.5,35.1l2.3,3.4
	l15.4-10.3l4.9,7.3l29.7-18.9v5.1c0,0.7,0.6,1.3,1.3,1.3h1.3c0.7,0,1.3-0.6,1.3-1.3v-11C77.8,10.1,77.2,9.5,76.4,9.5z"/>
</svg>
