<?xml version="1.0" encoding="utf-8"?>
<!-- Generator: Adobe Illustrator 21.1.0, SVG Export Plug-In . SVG Version: 6.00 Build 0)  -->
<svg version="1.1" id="Layer_1" xmlns="http://www.w3.org/2000/svg" xmlns:xlink="http://www.w3.org/1999/xlink" x="0px" y="0px"
	 viewBox="0 0 100 100" style="enable-background:new 0 0 100 100;" xml:space="preserve">
<style type="text/css">
	.st0{fill:#003087;}
	.st1{fill:none;}
</style>
<path class="st0" d="M52.9,53.8c5.4-1.5,9.3-6.4,9.3-12.3c0-7.1-5.7-12.8-12.8-12.8s-12.8,5.7-12.8,12.8c0,5.9,4,10.8,9.4,12.3
	c-3.3,1.3-5.7,4.1-6.4,7.6l0,1.3c0,1.4,4.4,2.5,9.8,2.5c5.4,0,9.8-1.1,9.8-2.5l0-1.4C59.1,58.4,56.2,55.2,52.9,53.8z"/>
<path class="st1" d="M49.9,25c-12.4,0-22.5,10.1-22.5,22.5s10.1,22.5,22.5,22.5S72.5,60,72.5,47.5S62.3,25,49.9,25z"/>
<path class="st0" d="M87,50.1c3-1.4,5-4.4,5-7.8c0-4.8-3.9-8.7-8.7-8.7c-3.2,0-5.9,1.7-7.4,4.2c1.1,3,1.8,6.3,1.8,9.8
	c0,0.4,0,0.8,0,1.2c0.6,0.5,1.3,1,2,1.3c-0.8,0.3-1.6,0.7-2.3,1.1c-0.6,4.6-2.3,8.8-4.9,12.4c1.5-0.6,3.1-0.3,4.2,1l1.3,1.5h16.1
	v-5.8C94.2,55.5,91.2,51.6,87,50.1z"/>
<path class="st0" d="M87.4,78.9L76.3,66l-0.5-0.6c-0.5-0.5-1.1-0.8-1.7-0.8c-0.5,0-1,0.2-1.4,0.5l-0.1,0.1l-8.1,7.7
	c-0.6,0.4-0.9,1.1-0.9,1.8c0,0.7,0.3,1.4,0.9,1.8l15.3,11.1c1,0.7,2.3,0.6,3.1-0.4l4.5-5.5C88.1,81,88.1,79.7,87.4,78.9z"/>
<g>
	<path class="st0" d="M24.8,55.7c0.2,0.6,0.4,1.1,0.6,1.7C25.3,56.8,25.1,56.3,24.8,55.7z"/>
	<path class="st0" d="M22.6,52.6c-1.1-1.1-2.5-2-4-2.5c1.4-0.7,2.6-1.7,3.5-3c0-2.6,0.4-5,1.1-7.4c-1.1-3.5-4.4-6.1-8.3-6.1
		c-4.8,0-8.7,3.9-8.7,8.7c0,3.5,2.1,6.5,5,7.8c-4.2,1.5-7.2,5.5-7.2,10.2V66h21.6v-4.7C24.3,58.7,23.2,55.7,22.6,52.6z"/>
</g>
<path class="st0" d="M76.3,47.2c0.2-2.5-0.5-5.5-1.2-7.6c0,0,0,0,0,0c-0.2-0.8-0.5-1.5-0.8-2.2c-0.1-0.1-0.1-0.2-0.1-0.2l0,0
	c-4-9.4-13.4-16-24.3-16c-14.6,0-26.4,11.8-26.4,26.4s11.8,26.4,26.4,26.4c9.6,0,18-5.1,22.6-12.8c1.6-2.6,2.7-5.6,3.3-8.7
	c0.3-1.6,0.5-3.2,0.5-4.9C76.3,47.4,76.3,47.3,76.3,47.2C76.3,47.2,76.3,47.2,76.3,47.2z M49.9,70.1c-12.4,0-22.5-10.1-22.5-22.5
	C27.4,35.1,37.5,25,49.9,25c12.4,0,22.5,10.1,22.5,22.5C72.5,60,62.3,70.1,49.9,70.1z"/>
</svg>
